<svg version="1.1" id="Layer_1" xmlns="http://www.w3.org/2000/svg" xmlns:xlink="http://www.w3.org/1999/xlink" x="0px" y="0px"
	 width="100%" viewBox="0 0 1528 995" enable-background="new 0 0 1528 995" xml:space="preserve">
<path fill="#FFFFFF" opacity="1.000000" stroke="none" 
	d="
M1362.314575,965.260498 
	C1343.674561,976.635010 1323.470581,983.166321 1302.790649,987.747986 
	C1286.720581,991.308411 1270.058350,992.352234 1253.621948,990.815735 
	C1236.440918,989.209473 1219.627197,985.290527 1203.784546,977.993652 
	C1187.735229,970.601501 1173.030273,961.131470 1160.927612,948.247192 
	C1149.355103,935.927246 1139.995605,921.946350 1134.066406,905.964355 
	C1131.115967,898.011353 1128.482422,889.929199 1126.031128,881.807190 
	C1124.688232,877.357483 1123.425903,872.737671 1123.159790,868.134888 
	C1122.184082,851.256897 1119.159424,834.450745 1121.911743,817.425354 
	C1123.986694,804.589294 1124.931763,791.566711 1127.128296,778.755554 
	C1128.809692,768.949768 1131.345703,759.255493 1134.058105,749.669067 
	C1139.511963,730.393921 1145.063232,711.137085 1151.102295,692.039612 
	C1157.085449,673.118713 1163.819946,654.436707 1170.040161,635.588989 
	C1177.471069,613.072449 1185.067505,590.600464 1191.922974,567.906982 
	C1198.696045,545.486694 1204.880249,522.878845 1210.840698,500.226410 
	C1214.071777,487.946106 1216.795410,475.481445 1218.813477,462.949432 
	C1220.318726,453.602081 1220.375244,444.016632 1220.983643,434.531281 
	C1221.404663,427.966125 1222.167603,421.369598 1221.890381,414.824677 
	C1221.388916,402.981049 1219.236572,391.473389 1213.432373,380.821350 
	C1206.426514,367.963348 1195.522339,360.954834 1181.497192,357.961456 
	C1172.955444,356.138397 1164.694458,357.454193 1156.291504,358.925781 
	C1142.233032,361.387756 1129.549072,367.163330 1118.014160,375.147858 
	C1109.326538,381.161377 1101.217407,388.116241 1093.387329,395.241516 
	C1074.839478,412.119934 1059.245728,431.554230 1044.488647,451.808044 
	C1026.616577,476.336914 1009.947876,501.604156 995.065735,528.019470 
	C981.256531,552.530334 967.625977,577.156677 954.594482,602.086426 
	C942.922363,624.415649 931.736023,647.024780 921.139709,669.883362 
	C910.428345,692.990173 900.462097,716.453369 890.626099,739.951599 
	C882.834351,758.565857 875.596497,777.416748 868.365784,796.259583 
	C862.055908,812.702637 855.999695,829.245239 850.010010,845.808411 
	C840.586853,871.866150 831.823608,898.176270 821.791992,923.995361 
	C815.451904,940.313354 808.068909,956.452820 793.678528,967.778809 
	C783.765686,975.580688 772.717163,980.334961 759.988342,982.215759 
	C745.156311,984.407288 731.640747,981.695374 718.552795,975.131287 
	C702.738525,967.199890 693.782715,953.784790 689.070007,937.311401 
	C685.152100,923.616272 686.310303,909.924927 690.246887,896.324341 
	C695.955994,876.599854 701.232727,856.748657 707.081787,837.066772 
	C712.514893,818.784729 718.437073,800.647644 724.179993,782.458130 
	C729.003723,767.180176 734.069763,751.975952 738.689758,736.637024 
	C746.502502,710.697998 754.220581,684.727661 761.655151,658.678284 
	C768.610474,634.307922 775.438721,609.893188 781.767639,585.354797 
	C786.307678,567.751892 790.157349,549.959961 793.880005,532.161377 
	C796.032898,521.868225 797.301758,511.391174 799.006714,501.003143 
	C801.311340,486.961395 804.509277,472.999695 805.730896,458.865967 
	C806.890137,445.454102 806.623596,431.826385 805.798462,418.366272 
	C805.189453,408.431732 803.594055,398.343597 800.789673,388.808777 
	C796.761292,375.112579 788.512451,363.992157 774.753601,358.507874 
	C769.465210,356.399902 763.494934,355.712555 757.757874,355.072968 
	C737.851624,352.853760 720.891724,360.827148 705.083008,371.548950 
	C688.995544,382.459839 675.511597,396.263123 663.763489,411.712860 
	C655.042358,423.181915 646.023438,434.478241 638.103394,446.488708 
	C628.900940,460.443726 620.319031,474.855377 612.259033,489.504181 
	C602.412781,507.399414 592.907410,525.517639 584.124023,543.953674 
	C571.497803,570.455505 559.719421,597.360168 547.458740,624.037537 
	C538.275879,644.017944 528.895081,663.907349 519.617493,683.844360 
	C512.710083,698.688110 506.412384,713.851440 498.791931,728.318787 
	C488.077850,748.659485 476.111572,768.337036 465.189911,788.572937 
	C451.969513,813.067993 435.765350,835.576233 419.337402,857.882263 
	C410.140259,870.370361 399.328613,881.681946 389.069092,893.369751 
	C383.835876,899.331421 378.616425,905.408447 372.685486,910.632690 
	C361.052612,920.879272 348.862000,930.489502 337.020905,940.503479 
	C323.103363,952.273682 307.304260,960.965332 291.081512,968.984070 
	C273.696381,977.577454 255.186264,982.753967 236.362839,987.038269 
	C214.742050,991.959290 192.706345,992.209595 170.923309,990.640259 
	C150.054199,989.136780 129.968872,982.900757 110.725746,974.101318 
	C94.459564,966.663147 80.559113,956.158630 67.018784,944.713318 
	C48.975445,929.461670 36.030605,910.425964 26.499083,889.389221 
	C19.466532,873.867920 14.364274,857.252991 10.342434,840.655212 
	C7.067929,827.141602 6.465229,812.951416 5.066765,799.022217 
	C4.049232,788.887207 2.816258,778.656982 3.193552,768.525513 
	C3.802353,752.177429 5.668911,735.876526 6.982470,719.554016 
	C7.678648,710.903198 8.156890,702.230835 9.052990,693.601379 
	C9.806496,686.345154 10.962075,679.127869 12.049285,671.909851 
	C13.303399,663.583801 14.702911,655.279785 15.993838,646.959167 
	C17.784016,635.420654 19.384588,623.850708 21.338203,612.340271 
	C23.392233,600.238342 25.654621,588.168518 28.034184,576.125854 
	C30.221245,565.057312 32.632851,554.032104 35.038815,543.008179 
	C39.329952,523.346619 43.437626,503.639893 48.101322,484.066254 
	C52.046387,467.508759 56.493931,451.064270 61.033298,434.656677 
	C67.878151,409.915894 74.804604,385.194244 82.062531,360.572388 
	C87.406418,342.443756 92.836411,324.311340 99.127090,306.498077 
	C107.494026,282.805542 116.265549,259.230682 125.734039,235.959549 
	C134.917572,213.388779 145.250732,191.287186 154.991150,168.941223 
	C166.214020,143.194214 180.418930,119.100067 196.144409,95.933304 
	C202.707962,86.263924 210.491989,77.384132 218.125000,68.492050 
	C224.047318,61.592827 230.256424,54.863480 236.929810,48.699276 
	C259.156464,28.168545 284.397156,13.199368 314.698944,7.977269 
	C329.899933,5.357585 345.108856,5.566101 360.443207,6.869476 
	C374.011597,8.022750 386.779968,11.997600 398.819702,17.668818 
	C407.466522,21.741812 415.386292,27.679718 422.959839,33.638058 
	C435.917938,43.832649 445.185059,57.182682 452.338623,71.895638 
	C459.558868,86.745712 464.309265,102.435326 465.951416,118.920181 
	C466.894928,128.391846 468.023956,137.926682 467.846527,147.410202 
	C467.541412,163.720337 466.458588,179.922729 463.286835,196.118713 
	C458.138214,222.409119 450.793884,247.975967 440.865814,272.730164 
	C432.819244,292.793243 424.371887,312.831390 414.230438,331.884216 
	C401.479340,355.839813 387.440491,379.176941 372.799347,402.039398 
	C359.919403,422.151672 345.735626,441.456909 331.564941,460.704254 
	C323.069824,472.242859 313.610901,483.084045 304.377319,494.063873 
	C291.005676,509.964355 277.750092,525.980286 263.861542,541.422119 
	C254.265396,552.091492 243.645020,561.836365 233.562439,572.073181 
	C229.747543,575.946411 226.307190,580.192993 222.438278,584.007812 
	C208.124588,598.121399 193.958603,612.400208 179.246475,626.089600 
	C166.041901,638.376282 152.220428,650.002014 138.612427,661.851990 
	C133.784241,666.056396 134.130417,672.077271 133.116974,677.479675 
	C131.649551,685.302307 131.052383,693.284546 129.936737,701.177917 
	C129.075378,707.272095 128.004990,713.337097 126.997749,719.410156 
	C123.190392,742.366272 123.243332,765.553467 124.205017,788.632874 
	C125.271843,814.235291 130.970810,838.917053 145.950317,860.416565 
	C155.417542,874.004517 168.386917,882.983826 184.867081,885.926514 
	C201.592148,888.912781 217.973572,887.092163 233.753159,880.659607 
	C248.020798,874.843506 261.473999,867.538940 273.080170,857.318970 
	C282.742035,848.811096 292.707520,840.476746 301.261536,830.922241 
	C314.083618,816.600647 326.582123,801.846619 337.757538,786.231079 
	C350.575745,768.320068 362.273804,749.550537 373.559448,730.618103 
	C382.029297,716.409363 389.277924,701.453918 396.710938,686.650452 
	C406.803284,666.550781 416.864746,646.424500 426.373779,626.045654 
	C439.521271,597.869385 452.069427,569.414062 465.016266,541.143250 
	C472.436707,524.939880 479.499359,508.525482 487.856140,492.808502 
	C502.027008,466.156586 517.048889,439.955902 531.798645,413.613495 
	C544.092896,391.656616 559.195984,371.683594 575.149231,352.290344 
	C595.294067,327.801666 618.337708,306.491791 645.118286,289.549347 
	C666.841858,275.806183 690.526550,266.332306 715.747314,261.033966 
	C734.262024,257.144409 753.055237,254.384293 771.917908,256.210052 
	C791.631897,258.118286 811.122681,261.726105 829.553650,269.810669 
	C843.767334,276.045380 856.425476,284.349792 868.132141,294.495117 
	C881.362854,305.961243 891.594482,319.857605 899.256409,335.169159 
	C907.725037,352.092896 912.824280,370.390991 916.182495,389.218842 
	C919.911316,410.124878 919.029846,431.077759 918.893372,452.051239 
	C918.857178,457.614075 917.516724,463.168427 916.775146,468.726654 
	C917.298279,468.957550 917.821472,469.188446 918.344604,469.419342 
	C920.195068,466.763794 922.145630,464.171875 923.879883,461.442505 
	C936.993835,440.803833 949.442139,419.706970 963.345886,399.616547 
	C974.610229,383.339996 987.267090,367.978882 999.955017,352.752319 
	C1008.823853,342.108917 1018.211121,331.753143 1028.381592,322.368744 
	C1049.642456,302.751221 1072.860229,285.827698 1099.471558,273.849426 
	C1116.459961,266.202545 1134.285400,261.425751 1152.446777,258.254700 
	C1163.718384,256.286652 1175.447754,255.671570 1186.888916,256.209503 
	C1210.249023,257.307831 1233.010498,261.803192 1254.362671,272.008545 
	C1272.560059,280.706055 1287.907593,292.872620 1300.918823,308.298553 
	C1317.629395,328.110138 1328.020142,350.899658 1332.813721,376.089111 
	C1335.516357,390.290527 1336.791870,404.817230 1337.847778,419.260468 
	C1338.623779,429.874664 1338.517090,440.623657 1337.850220,451.252747 
	C1337.220825,461.286041 1335.551025,471.273804 1333.968628,481.222687 
	C1331.835205,494.635773 1329.763062,508.082184 1326.900879,521.349548 
	C1323.717285,536.106750 1320.076538,550.793823 1315.914185,565.304749 
	C1309.593628,587.339661 1303.007812,609.312988 1295.876465,631.096924 
	C1288.253906,654.381470 1279.734619,677.370728 1271.855103,700.573181 
	C1264.952515,720.898987 1258.055542,741.238403 1251.793579,761.766235 
	C1247.018066,777.421326 1242.284302,793.204834 1239.329712,809.261963 
	C1237.086670,821.452637 1237.047974,834.171143 1237.194336,846.641174 
	C1237.315918,857.005615 1240.306641,867.063354 1246.053223,875.886047 
	C1251.788086,884.690796 1260.562744,889.144470 1270.635498,890.957520 
	C1290.227783,894.484009 1306.324951,886.014587 1321.297241,875.063660 
	C1338.515625,862.469849 1351.911011,846.234924 1364.126709,828.820374 
	C1376.556030,811.101440 1388.023682,792.880737 1397.247192,773.299500 
	C1406.265503,754.153503 1414.607910,734.670898 1424.182251,715.810730 
	C1431.788574,700.826843 1444.134033,689.580994 1460.964844,687.419006 
	C1483.748901,684.492310 1502.845093,687.900696 1517.528564,711.432678 
	C1522.306885,719.090698 1523.590698,728.114258 1523.315430,737.713745 
	C1522.823853,754.851013 1515.313232,769.405884 1509.069580,784.524658 
	C1497.859131,811.669800 1483.764771,837.312256 1467.012817,861.373474 
	C1456.734985,876.135925 1445.437988,890.216797 1434.118408,904.215271 
	C1427.395386,912.529358 1420.235352,920.625427 1412.397095,927.873535 
	C1397.144165,941.977966 1381.040527,955.099670 1362.314575,965.260498 
M244.503387,240.998322 
	C240.604416,251.839752 236.580093,262.638062 232.833572,273.531921 
	C225.853363,293.828583 218.932556,314.146942 212.188049,334.522827 
	C208.261398,346.385620 204.469406,358.305298 201.069199,370.327301 
	C194.956192,391.940887 189.151657,413.642059 183.280182,435.323425 
	C179.463974,449.415436 175.620834,463.502563 172.039154,477.654968 
	C168.213776,492.770203 164.652603,507.952728 161.036133,523.120178 
	C159.635620,528.993835 158.399643,534.906799 156.778015,542.198975 
	C159.212906,540.496460 160.819138,539.754944 161.912292,538.548523 
	C170.406921,529.173401 178.963242,519.846313 187.193680,510.241455 
	C201.758545,493.244202 216.560974,476.419525 230.414078,458.852356 
	C243.520920,442.231506 255.993866,425.061127 267.899170,407.556732 
	C279.199280,390.942108 289.678009,373.746277 299.999390,356.495789 
	C307.987610,343.144775 315.768188,329.603455 322.572174,315.626373 
	C331.549713,297.184296 339.912262,278.410461 347.716461,259.440735 
	C353.189972,246.136322 357.833954,232.424377 361.838654,218.601868 
	C365.369171,206.415939 367.910004,193.897400 370.131927,181.391418 
	C372.260590,169.410339 373.938446,157.293289 374.794586,145.164017 
	C375.270660,138.419403 374.226929,131.413742 372.872253,124.727524 
	C370.479187,112.916107 363.220947,103.079330 352.122162,100.075668 
	C338.704346,96.444427 327.386719,101.901077 317.712921,110.077263 
	C301.587006,123.706711 290.270508,141.313446 280.701843,159.908051 
	C272.692566,175.472382 265.241791,191.342346 258.072235,207.314240 
	C253.227615,218.106827 249.300430,229.311264 244.503387,240.998322 
z"/>
</svg>